<svg xmlns="http://www.w3.org/2000/svg" xmlns:xlink="http://www.w3.org/1999/xlink" width="500" zoomAndPan="magnify" viewBox="0 0 375 374.999991" height="500" preserveAspectRatio="xMidYMid meet" version="1.0"><path fill="#000000" d="M 117.742188 236.191406 L 225.160156 236.191406 C 229.691406 236.839844 230.746094 241.460938 228.65625 246.570312 C 224.226562 257.328125 212.855469 264.589844 201.300781 264.589844 L 141.601562 264.589844 C 130.039062 264.589844 118.675781 257.328125 114.277344 246.570312 C 112.15625 241.460938 113.191406 236.191406 117.742188 236.191406 Z M 39.597656 225.027344 C 42.269531 225.046875 45.445312 225.359375 49.261719 226.035156 C 64.488281 228.667969 80.71875 232.476562 87.882812 250.585938 C 91.742188 260.355469 88.964844 266.902344 77.894531 265.222656 C 66.378906 263.507812 44.78125 260.792969 34.5 257.039062 C 21.980469 252.453125 24.585938 238.503906 26.875 231.472656 C 28.148438 227.5 31.542969 224.953125 39.597656 225.027344 Z M 171.441406 57.628906 C 132.304688 57.628906 108.226562 58.21875 90.269531 63.046875 C 74.941406 67.148438 67.167969 79.554688 63.574219 88.851562 L 35.265625 162.667969 L 13.246094 162.667969 C 4.367188 162.644531 -0.109375 166.878906 -0.109375 174.039062 C -0.132812 183.628906 4.367188 192.539062 16.589844 198.863281 L 13.351562 204.667969 C 9.042969 212.886719 5.894531 221.570312 5.894531 229.34375 L 5.894531 293.011719 C 5.894531 303.660156 13.277344 312.664062 21.835938 316.015625 L 21.835938 340.003906 C 21.835938 345.851562 26.515625 350.507812 32.3125 350.507812 L 62.105469 350.507812 C 67.910156 350.507812 72.609375 345.855469 72.609375 340.003906 L 72.609375 317.480469 L 242.511719 317.480469 L 249.824219 173.871094 C 226.472656 175.515625 198.484375 177.140625 171.453125 177.140625 C 128.402344 177.140625 81.25 173.003906 57.925781 171.234375 L 85.136719 96.527344 C 86.613281 92.375 90.589844 86.640625 96.207031 85.144531 C 109.292969 81.625 132.632812 80.53125 171.453125 80.53125 C 184.511719 80.53125 195.242188 80.707031 204.976562 81.023438 C 205.617188 73.207031 207.316406 65.5 209.871094 58.097656 C 198.894531 57.734375 186.25 57.628906 171.441406 57.628906 Z M 171.441406 57.628906 " fill-opacity="1" fill-rule="evenodd"/><path fill="#000000" d="M 300.683594 294.5625 C 308.558594 294.5625 314.917969 300.929688 314.917969 308.800781 C 314.917969 316.671875 308.554688 323.046875 300.683594 323.046875 C 292.816406 323.046875 286.441406 316.671875 286.441406 308.800781 C 286.441406 300.929688 292.8125 294.5625 300.683594 294.5625 Z M 273.574219 24.335938 C 245.261719 35.488281 226.613281 62.824219 226.613281 93.289062 C 226.667969 122.324219 243.660156 148.652344 270.082031 160.660156 L 262.183594 316.183594 C 261.148438 336.320312 284.078125 349.574219 300.683594 349.574219 C 317.257812 349.574219 340.210938 336.3125 339.175781 316.183594 L 331.257812 160.683594 C 357.699219 148.679688 374.703125 122.328125 374.746094 93.289062 C 374.703125 62.855469 356.078125 35.539062 327.785156 24.417969 L 327.785156 85.144531 L 300.683594 100.394531 L 273.574219 85.144531 Z M 273.574219 24.335938 " fill-opacity="1" fill-rule="evenodd"/></svg>